<svg width="15" height="14" viewBox="0 0 15 14" version="1.1" xmlns="http://www.w3.org/2000/svg" xmlns:xlink="http://www.w3.org/1999/xlink">
<title>002-time</title>
<desc>Created using Figma</desc>
<g id="Canvas" transform="translate(-1246 -2263)">
<g id="002-time">
<g id="Group">
<g id="Group">
<g id="Group">
<g id="Vector">
<use xlink:href="#path0_fill" transform="translate(1246 2263)"/>
</g>
<g id="Vector">
<use xlink:href="#path1_fill" transform="translate(1248 2268)"/>
</g>
<g id="Vector">
<use xlink:href="#path2_fill" transform="translate(1251 2268)"/>
</g>
<g id="Vector">
<use xlink:href="#path3_fill" transform="translate(1254 2268)"/>
</g>
<g id="Vector">
<use xlink:href="#path4_fill" transform="translate(1257 2268)"/>
</g>
<g id="Vector">
<use xlink:href="#path5_fill" transform="translate(1248 2270.75)"/>
</g>
<g id="Vector">
<use xlink:href="#path6_fill" transform="translate(1251 2270.75)"/>
</g>
<g id="Vector">
<use xlink:href="#path7_fill" transform="translate(1254 2270.75)"/>
</g>
<g id="Vector">
<use xlink:href="#path8_fill" transform="translate(1257 2270.75)"/>
</g>
<g id="Vector">
<use xlink:href="#path9_fill" transform="translate(1248 2273.5)"/>
</g>
<g id="Vector">
<use xlink:href="#path10_fill" transform="translate(1251 2273.5)"/>
</g>
<g id="Vector">
<use xlink:href="#path11_fill" transform="translate(1254 2273.5)"/>
</g>
<g id="Vector">
<use xlink:href="#path12_fill" transform="translate(1257 2273.5)"/>
</g>
</g>
</g>
</g>
</g>
</g>
<defs>
<path id="path0_fill" d="M 14.25 1.00001L 14.2258 1.00001C 14.1127 0.423426 13.6142 -8.86246e-09 13 -8.86246e-09C 12.3859 -8.86246e-09 11.8873 0.423396 11.7742 1.00001L 11.4758 1.00001C 11.3628 0.423426 10.8642 -8.86246e-09 10.25 -8.86246e-09C 9.6359 -8.86246e-09 9.13729 0.423396 9.02423 1.00001L 8.72587 1.00001C 8.61277 0.423426 8.1142 -8.86246e-09 7.50006 -8.86246e-09C 6.88592 -8.86246e-09 6.38731 0.423396 6.27425 1.00001L 5.97589 1.00001C 5.8628 0.423426 5.36422 -8.86246e-09 4.75008 -8.86246e-09C 4.13594 -8.86246e-09 3.63734 0.423396 3.52427 1.00001L 3.22591 1.00001C 3.11282 0.423426 2.61425 -8.86246e-09 2.00011 -8.86246e-09C 1.38596 -8.86246e-09 0.88736 0.423396 0.774296 1.00001L 0.749991 1.00001C 0.324986 1.00001 0 1.32499 0 1.75L 0 3.75001L 0 13.25C 0 13.675 0.324986 14 0.749991 14L 14.25 14C 14.675 14 15 13.675 15 13.25L 15 3.75001L 15 1.75C 15 1.32499 14.675 1.00001 14.25 1.00001ZM 13 0.500003C 13.3366 0.500003 13.6104 0.704002 13.7097 1.00001L 12.2903 1.00001C 12.3897 0.704002 12.6634 0.500003 13 0.500003ZM 10.25 0.500003C 10.5866 0.500003 10.8604 0.704002 10.9597 1.00001L 9.54031 1.00001C 9.63965 0.704002 9.91337 0.500003 10.25 0.500003ZM 7.5 0.500003C 7.83663 0.500003 8.11036 0.704002 8.20969 1.00001L 6.79031 1.00001C 6.88967 0.704002 7.16337 0.500003 7.5 0.500003ZM 4.74999 0.500003C 5.08663 0.500003 5.36035 0.704002 5.45968 1.00001L 4.0403 1.00001C 4.13966 0.704002 4.41336 0.500003 4.74999 0.500003ZM 2.00002 0.500003C 2.33665 0.500003 2.61037 0.704002 2.70971 1.00001L 1.29032 1.00001C 1.38966 0.704002 1.66335 0.500003 2.00002 0.500003ZM 0.500004 1.75C 0.500004 1.6 0.625012 1.50001 0.749991 1.50001L 2.70968 1.50001C 2.61034 1.79601 2.33662 2.00001 1.99999 2.00001C 1.84999 2.00001 1.75 2.1 1.75 2.25C 1.75 2.4 1.87501 2.49999 1.99999 2.49999C 2.61413 2.49999 3.11273 2.07659 3.2258 1.49998L 5.45968 1.49998C 5.36035 1.79598 5.08663 1.99998 4.74999 1.99998C 4.6 1.99998 4.50001 2.09997 4.50001 2.24997C 4.50001 2.39997 4.6 2.49996 4.74999 2.49996C 5.36413 2.49996 5.86274 2.07656 5.9758 1.49995L 8.20969 1.49995C 8.11036 1.79595 7.83663 1.99995 7.5 1.99995C 7.35 1.99995 7.25001 2.09994 7.25001 2.24994C 7.25001 2.39994 7.35 2.49993 7.5 2.49993C 8.11414 2.49993 8.61275 2.07653 8.72581 1.49992L 10.9597 1.49992C 10.8604 1.79592 10.5866 1.99992 10.25 1.99992C 10.1 1.99992 10 2.09991 10 2.24991C 10 2.39991 10.1 2.4999 10.25 2.4999C 10.8641 2.4999 11.3628 2.0765 11.4758 1.49989L 13.7097 1.49989C 13.6104 1.7959 13.3366 1.99989 13 1.99989C 12.85 1.99989 12.75 2.09988 12.75 2.24988C 12.75 2.39988 12.85 2.49987 13 2.49987C 13.6142 2.49987 14.1128 2.07647 14.2258 1.49986L 14.25 1.49986C 14.4 1.49986 14.5 1.59985 14.5 1.74985L 14.5 3.49984L 0.500004 3.49984L 0.500004 1.75ZM 14.5 13.25C 14.5 13.4 14.4 13.5 14.25 13.5L 0.749991 13.5C 0.599993 13.5 0.500004 13.4 0.500004 13.25L 0.500004 4L 14.5 4L 14.5 13.25Z"/>
<path id="path1_fill" d="M 0.249987 1.99998L 1.75 1.99998C 1.9 1.99998 1.99999 1.89999 1.99999 1.75L 1.99999 0.249987C 1.99999 0.0999886 1.9 1.74522e-07 1.75 1.74522e-07L 0.249987 1.74522e-07C 0.0999889 1.74522e-07 7.81716e-08 0.0999886 7.81716e-08 0.249987L 7.81716e-08 1.75C 7.81716e-08 1.89999 0.0999889 1.99998 0.249987 1.99998ZM 0.499974 0.500003L 1.49998 0.500003L 1.49998 1.50001L 0.499974 1.50001L 0.499974 0.500003Z"/>
<path id="path2_fill" d="M 0.249987 1.99998L 1.75 1.99998C 1.9 1.99998 1.99999 1.89999 1.99999 1.75L 1.99999 0.249987C 1.99999 0.0999886 1.9 1.74522e-07 1.75 1.74522e-07L 0.249987 1.74522e-07C 0.0999887 1.74522e-07 9.8169e-08 0.0999886 9.8169e-08 0.249987L 9.8169e-08 1.75C 9.8169e-08 1.89999 0.0999887 1.99998 0.249987 1.99998ZM 0.500004 0.500003L 1.50001 0.500003L 1.50001 1.50001L 0.500004 1.50001L 0.500004 0.500003Z"/>
<path id="path3_fill" d="M 0.249987 1.99998L 1.75 1.99998C 1.9 1.99998 1.99999 1.89999 1.99999 1.75L 1.99999 0.249987C 1.99999 0.0999886 1.9 1.74522e-07 1.75 1.74522e-07L 0.249987 1.74522e-07C 0.0999892 1.74522e-07 1.08455e-07 0.0999886 1.08455e-07 0.249987L 1.08455e-07 1.75C -2.96767e-05 1.89999 0.0999892 1.99998 0.249987 1.99998ZM 0.499975 0.500003L 1.49998 0.500003L 1.49998 1.50001L 0.499975 1.50001L 0.499975 0.500003Z"/>
<path id="path4_fill" d="M 0.249987 1.99998L 1.75 1.99998C 1.9 1.99998 1.99999 1.89999 1.99999 1.75L 1.99999 0.249987C 1.99999 0.0999886 1.9 1.74522e-07 1.75 1.74522e-07L 0.249987 1.74522e-07C 0.0999885 1.74522e-07 3.55696e-07 0.0999886 3.55696e-07 0.249987L 3.55696e-07 1.75C -2.94295e-05 1.89999 0.0999885 1.99998 0.249987 1.99998ZM 0.499974 0.500003L 1.49998 0.500003L 1.49998 1.50001L 0.499974 1.50001L 0.499974 0.500003Z"/>
<path id="path5_fill" d="M 0.249987 1.99998L 1.75 1.99998C 1.9 1.99998 1.99999 1.89999 1.99999 1.75L 1.99999 0.249987C 1.99999 0.0999891 1.9 2.61783e-07 1.75 2.61783e-07L 0.249987 2.61783e-07C 0.0999889 2.61783e-07 7.81716e-08 0.0999891 7.81716e-08 0.249987L 7.81716e-08 1.75C 7.81716e-08 1.89999 0.0999889 1.99998 0.249987 1.99998ZM 0.499974 0.500003L 1.49998 0.500003L 1.49998 1.50001L 0.499974 1.50001L 0.499974 0.500003Z"/>
<path id="path6_fill" d="M 0.249987 1.99998L 1.75 1.99998C 1.9 1.99998 1.99999 1.89999 1.99999 1.75L 1.99999 0.249987C 1.99999 0.0999891 1.9 2.61783e-07 1.75 2.61783e-07L 0.249987 2.61783e-07C 0.0999887 2.61783e-07 9.8169e-08 0.0999891 9.8169e-08 0.249987L 9.8169e-08 1.75C 9.8169e-08 1.89999 0.0999887 1.99998 0.249987 1.99998ZM 0.500004 0.500003L 1.50001 0.500003L 1.50001 1.50001L 0.500004 1.50001L 0.500004 0.500003Z"/>
<path id="path7_fill" d="M 0.249987 1.99998L 1.75 1.99998C 1.9 1.99998 1.99999 1.89999 1.99999 1.75L 1.99999 0.249987C 1.99999 0.0999891 1.9 2.61783e-07 1.75 2.61783e-07L 0.249987 2.61783e-07C 0.0999892 2.61783e-07 1.08455e-07 0.0999891 1.08455e-07 0.249987L 1.08455e-07 1.75C -2.96767e-05 1.89999 0.0999892 1.99998 0.249987 1.99998ZM 0.499975 0.500003L 1.49998 0.500003L 1.49998 1.50001L 0.499975 1.50001L 0.499975 0.500003Z"/>
<path id="path8_fill" d="M 0.249987 1.99998L 1.75 1.99998C 1.9 1.99998 1.99999 1.89999 1.99999 1.75L 1.99999 0.249987C 1.99999 0.0999891 1.9 2.61783e-07 1.75 2.61783e-07L 0.249987 2.61783e-07C 0.0999885 2.61783e-07 3.55696e-07 0.0999891 3.55696e-07 0.249987L 3.55696e-07 1.75C -2.94295e-05 1.89999 0.0999885 1.99998 0.249987 1.99998ZM 0.499974 0.500003L 1.49998 0.500003L 1.49998 1.50001L 0.499974 1.50001L 0.499974 0.500003Z"/>
<path id="path9_fill" d="M 0.249987 1.99998L 1.75 1.99998C 1.9 1.99998 1.99999 1.89999 1.99999 1.75L 1.99999 0.249986C 1.99999 0.0999883 1.9 3.49045e-07 1.75 3.49045e-07L 0.249987 3.49045e-07C 0.0999889 3.49045e-07 7.81716e-08 0.0999883 7.81716e-08 0.249986L 7.81716e-08 1.75C 7.81716e-08 1.89999 0.0999889 1.99998 0.249987 1.99998ZM 0.499974 0.499973L 1.49998 0.499973L 1.49998 1.49998L 0.499974 1.49998L 0.499974 0.499973Z"/>
<path id="path10_fill" d="M 0.249987 1.99998L 1.75 1.99998C 1.9 1.99998 1.99999 1.89999 1.99999 1.75L 1.99999 0.249986C 1.99999 0.0999883 1.9 3.49045e-07 1.75 3.49045e-07L 0.249987 3.49045e-07C 0.0999887 3.49045e-07 9.8169e-08 0.0999883 9.8169e-08 0.249986L 9.8169e-08 1.75C 9.8169e-08 1.89999 0.0999887 1.99998 0.249987 1.99998ZM 0.500004 0.499973L 1.50001 0.499973L 1.50001 1.49998L 0.500004 1.49998L 0.500004 0.499973Z"/>
<path id="path11_fill" d="M 0.249987 1.99998L 1.75 1.99998C 1.9 1.99998 1.99999 1.89999 1.99999 1.75L 1.99999 0.249986C 1.99999 0.0999883 1.9 3.49045e-07 1.75 3.49045e-07L 0.249987 3.49045e-07C 0.0999892 3.49045e-07 1.08455e-07 0.0999883 1.08455e-07 0.249986L 1.08455e-07 1.75C -2.96767e-05 1.89999 0.0999892 1.99998 0.249987 1.99998ZM 0.499975 0.499973L 1.49998 0.499973L 1.49998 1.49998L 0.499975 1.49998L 0.499975 0.499973Z"/>
<path id="path12_fill" d="M 0.249987 1.99998L 1.75 1.99998C 1.9 1.99998 1.99999 1.89999 1.99999 1.75L 1.99999 0.249986C 1.99999 0.0999883 1.9 3.49045e-07 1.75 3.49045e-07L 0.249987 3.49045e-07C 0.0999885 3.49045e-07 3.55696e-07 0.0999883 3.55696e-07 0.249986L 3.55696e-07 1.75C -2.94295e-05 1.89999 0.0999885 1.99998 0.249987 1.99998ZM 0.499974 0.499973L 1.49998 0.499973L 1.49998 1.49998L 0.499974 1.49998L 0.499974 0.499973Z"/>
</defs>
</svg>
