<svg width="15" height="14" viewBox="0 0 15 14" version="1.1" xmlns="http://www.w3.org/2000/svg" xmlns:xlink="http://www.w3.org/1999/xlink">
<title>2-squares</title>
<desc>Created using Figma</desc>
<g id="Canvas" transform="translate(-2147 -1453)">
<g id="2-squares">
<g id="Group">
<g id="Vector">
<use xlink:href="#path0_fill" transform="translate(2147 1453)"/>
</g>
</g>
</g>
</g>
<defs>
<path id="path0_fill" d="M 14.459 2.83576e-09L 5.36412 2.83576e-09C 5.06579 2.83576e-09 4.8232 0.357193 4.8232 0.796391L 4.8232 4.28655L 0.540953 4.28655C 0.242626 4.28655 0 4.64375 0 5.0828L 0 13.2034C 0 13.6429 0.242626 14 0.540953 14L 9.63579 14C 9.93427 14 10.1767 13.6429 10.1767 13.2034L 10.1767 9.71331L 14.4591 9.71331C 14.7573 9.71331 15 9.3563 15 8.91701L 15 0.796391C 14.9997 0.357193 14.7572 2.83576e-09 14.459 2.83576e-09ZM 9.6462 13.2034C 9.6462 13.2118 9.64163 13.2189 9.63576 13.2189L 0.530696 13.2034L 0.541142 5.06752L 9.6462 5.0828L 9.6462 13.2034ZM 14.4692 8.91701C 14.4692 8.92542 14.4646 8.9323 14.4587 8.9323L 10.1766 8.92519L 10.1766 5.0828C 10.1766 4.64375 9.93383 4.28655 9.63557 4.28655L 5.35954 4.28655L 5.36399 0.781012L 14.4691 0.796391L 14.4691 8.91701L 14.4692 8.91701Z"/>
</defs>
</svg>
