<svg width="15" height="15" viewBox="0 0 15 15" version="1.1" xmlns="http://www.w3.org/2000/svg" xmlns:xlink="http://www.w3.org/1999/xlink">
<title>001-dialogue</title>
<desc>Created using Figma</desc>
<g id="Canvas" transform="translate(-1376 -2263)">
<g id="001-dialogue">
<g id="Group">
<g id="Group">
<g id="Vector">
<use xlink:href="#path0_fill" transform="translate(1380.69 2264.89)"/>
</g>
</g>
<g id="Group">
<g id="Vector">
<use xlink:href="#path1_fill" transform="translate(1388.19 2267.72)"/>
</g>
</g>
<g id="Group">
<g id="Vector">
<use xlink:href="#path2_fill" transform="translate(1388.66 2269.13)"/>
</g>
</g>
<g id="Group">
<g id="Vector">
<use xlink:href="#path3_fill" transform="translate(1384.44 2266.3)"/>
</g>
</g>
<g id="Group">
<g id="Vector">
<use xlink:href="#path4_fill" transform="translate(1380.69 2266.3)"/>
</g>
</g>
<g id="Group">
<g id="Vector">
<use xlink:href="#path5_fill" transform="translate(1378.81 2263)"/>
</g>
</g>
<g id="Group">
<g id="Vector">
<use xlink:href="#path6_fill" transform="translate(1377.88 2269.61)"/>
</g>
</g>
<g id="Group">
<g id="Vector">
<use xlink:href="#path7_fill" transform="translate(1382.8 2272.44)"/>
</g>
</g>
<g id="Group">
<g id="Vector">
<use xlink:href="#path8_fill" transform="translate(1377.88 2272.44)"/>
</g>
</g>
<g id="Group">
<g id="Vector">
<use xlink:href="#path9_fill" transform="translate(1377.88 2273.85)"/>
</g>
</g>
<g id="Group">
<g id="Vector">
<use xlink:href="#path10_fill" transform="translate(1377.88 2271.02)"/>
</g>
</g>
<g id="Group">
<g id="Vector">
<use xlink:href="#path11_fill" transform="translate(1380.22 2271.02)"/>
</g>
</g>
<g id="Group">
<g id="Vector">
<use xlink:href="#path12_fill" transform="translate(1376 2267.72)"/>
</g>
</g>
</g>
</g>
</g>
<defs>
<path id="path0_fill" d="M 8.20314 0.471796L 0.234375 0.471796C 0.104942 0.471796 0 0.366173 0 0.235898C 0 0.105623 0.104942 -3.59952e-09 0.234375 -3.59952e-09L 8.20314 -3.59952e-09C 8.33257 -3.59952e-09 8.43752 0.105623 8.43752 0.235898C 8.43752 0.366173 8.33257 0.471796 8.20314 0.471796Z"/>
<path id="path1_fill" d="M 0.703126 0.471796L 0.234375 0.471796C 0.104942 0.471796 0 0.366173 0 0.235898C 0 0.105623 0.104942 -3.59952e-09 0.234375 -3.59952e-09L 0.703126 -3.59952e-09C 0.83256 -3.59952e-09 0.937502 0.105623 0.937502 0.235898C 0.937502 0.366173 0.83256 0.471796 0.703126 0.471796Z"/>
<path id="path2_fill" d="M 0.234375 0.471796C 0.172559 0.471796 0.112207 0.446437 0.0685547 0.402501C 0.0249023 0.358565 0 0.297821 0 0.235898C 0 0.17368 0.0249023 0.112936 0.0685547 0.0690001C 0.112207 0.025064 0.172852 -3.59952e-08 0.234375 -3.59952e-08C 0.295899 -3.59952e-08 0.356544 0.025064 0.400196 0.0690001C 0.443849 0.112936 0.468751 0.17368 0.468751 0.235898C 0.468751 0.297821 0.443849 0.358565 0.400196 0.402501C 0.356544 0.446437 0.296192 0.471796 0.234375 0.471796Z"/>
<path id="path3_fill" d="M 4.45313 0.471796L 0.234375 0.471796C 0.104942 0.471796 0 0.366173 0 0.235898C 0 0.105623 0.104942 -3.59952e-09 0.234375 -3.59952e-09L 4.45313 -3.59952e-09C 4.58257 -3.59952e-09 4.68751 0.105623 4.68751 0.235898C 4.68751 0.366173 4.58257 0.471796 4.45313 0.471796Z"/>
<path id="path4_fill" d="M 3.04688 0.471796L 0.234375 0.471796C 0.104942 0.471796 0 0.366173 0 0.235898C 0 0.105623 0.104942 -3.59952e-09 0.234375 -3.59952e-09L 3.04688 -3.59952e-09C 3.17631 -3.59952e-09 3.28126 0.105623 3.28126 0.235898C 3.28126 0.366173 3.17631 0.471796 3.04688 0.471796Z"/>
<path id="path5_fill" d="M 10.5464 10.282C 10.4247 10.282 10.3053 10.2341 10.2154 10.1436L 9.91241 9.83863C 9.82086 9.74652 9.82086 9.59716 9.91241 9.50502C 10.0039 9.4129 10.1523 9.4129 10.2438 9.50502L 10.5467 9.80986L 10.5469 8.235C 10.5469 8.11997 10.6293 8.02172 10.742 8.00243C 11.2989 7.90719 11.7188 7.40791 11.7188 6.84105L 11.7188 1.65129C 11.7188 1.00092 11.1931 0.471796 10.5469 0.471796L 1.64063 0.471796C 0.994455 0.471796 0.468751 1.00092 0.468751 1.65129L 0.468751 4.01027C 0.468751 4.14054 0.363809 4.24617 0.234375 4.24617C 0.104942 4.24617 0 4.14054 0 4.01027L 0 1.65129C 0 0.740779 0.735998 -8.43635e-11 1.64063 -8.43635e-11L 10.5469 -8.43635e-11C 11.4515 -8.43635e-11 12.1875 0.740779 12.1875 1.65129L 12.1875 6.84105C 12.1875 7.58012 11.7053 8.2161 11.0156 8.42198L 11.0156 9.81C 11.0156 10.0015 10.9021 10.1726 10.7263 10.2459C 10.668 10.2702 10.6069 10.282 10.5464 10.282Z"/>
<path id="path6_fill" d="M 8.20314 0.471796L 0.234375 0.471796C 0.104942 0.471796 0 0.366173 0 0.235898C 0 0.105623 0.104942 -3.59952e-09 0.234375 -3.59952e-09L 8.20314 -3.59952e-09C 8.33257 -3.59952e-09 8.43752 0.105623 8.43752 0.235898C 8.43752 0.366173 8.33257 0.471796 8.20314 0.471796Z"/>
<path id="path7_fill" d="M 3.28126 0.471797L 0.234375 0.471797C 0.104942 0.471797 0 0.366173 0 0.235899C 0 0.105624 0.104942 4.46341e-07 0.234375 4.46341e-07L 3.28126 4.46341e-07C 3.41069 4.46341e-07 3.51563 0.105624 3.51563 0.235899C 3.51563 0.366173 3.41069 0.471797 3.28126 0.471797Z"/>
<path id="path8_fill" d="M 4.21876 0.471797L 0.234375 0.471797C 0.104942 0.471797 0 0.366173 0 0.235899C 0 0.105624 0.104942 4.46341e-07 0.234375 4.46341e-07L 4.21876 4.46341e-07C 4.34819 4.46341e-07 4.45313 0.105624 4.45313 0.235899C 4.45313 0.366173 4.34819 0.471797 4.21876 0.471797Z"/>
<path id="path9_fill" d="M 8.20314 0.471797L 0.234375 0.471797C 0.104942 0.471797 0 0.366173 0 0.235899C 0 0.105624 0.104942 4.46341e-07 0.234375 4.46341e-07L 8.20314 4.46341e-07C 8.33257 4.46341e-07 8.43752 0.105624 8.43752 0.235899C 8.43752 0.366173 8.33257 0.471797 8.20314 0.471797Z"/>
<path id="path10_fill" d="M 1.64063 0.471797L 0.234375 0.471797C 0.104942 0.471797 0 0.366173 0 0.235899C 0 0.105624 0.104942 4.46341e-07 0.234375 4.46341e-07L 1.64063 4.46341e-07C 1.77006 4.46341e-07 1.875 0.105624 1.875 0.235899C 1.875 0.366173 1.77006 0.471797 1.64063 0.471797Z"/>
<path id="path11_fill" d="M 5.85939 0.471797L 0.234375 0.471797C 0.104942 0.471797 0 0.366173 0 0.235899C 0 0.105624 0.104942 4.46341e-07 0.234375 4.46341e-07L 5.85939 4.46341e-07C 5.98882 4.46341e-07 6.09376 0.105624 6.09376 0.235899C 6.09376 0.366173 5.98882 0.471797 5.85939 0.471797Z"/>
<path id="path12_fill" d="M 1.6411 10.282C 1.58063 10.282 1.51957 10.2702 1.46124 10.2459C 1.28546 10.1726 1.17188 10.0015 1.17188 9.81L 1.17188 8.42198C 0.482257 8.2161 1.3916e-12 7.58012 1.3916e-12 6.84105L 1.3916e-12 1.65129C 1.3916e-12 0.740779 0.735998 -3.59952e-09 1.64063 -3.59952e-09L 10.5469 -3.59952e-09C 11.4515 -3.59952e-09 12.1875 0.740779 12.1875 1.65129L 12.1875 6.84105C 12.1875 7.75156 11.4515 8.49233 10.5469 8.49233L 3.61266 8.49233L 1.97204 10.1436C 1.88218 10.2341 1.7628 10.282 1.6411 10.282ZM 1.6406 0.471796C 0.994426 0.471796 0.468722 1.00092 0.468722 1.65129L 0.468722 6.84105C 0.468722 7.40791 0.888635 7.90719 1.44548 8.00243C 1.55816 8.02172 1.6406 8.11997 1.6406 8.235L 1.6406 9.8098L 3.34987 8.08963C 3.39382 8.0454 3.45343 8.02054 3.5156 8.02054L 10.5469 8.02054C 11.193 8.02054 11.7187 7.49142 11.7187 6.84105L 11.7187 1.65129C 11.7187 1.00092 11.193 0.471796 10.5469 0.471796L 1.6406 0.471796Z"/>
</defs>
</svg>
