<svg width="99" height="99" viewBox="0 0 99 99" version="1.1" xmlns="http://www.w3.org/2000/svg" xmlns:xlink="http://www.w3.org/1999/xlink">
<defs>
    <style>
        svg:hover .stroke-rounded{
            fill:#FF7008;
        }
    </style>
</defs>
<title>notice-icon</title>
<desc>Created using Figma</desc>
<g id="Canvas" transform="translate(-1936 -221)">
<g id="notice-icon">
<g id="Ellipse">
<use xlink:href="#path0_fill" transform="matrix(-1 0 0 1 2028.16 227.843)" fill="#FF7008"/>
</g>
<g id="megaphone">
<g id="Group">
<g id="Group">
<g id="Vector">
<use xlink:href="#path1_fill" transform="matrix(0.944179 0.329432 -0.329432 0.944179 1970.78 240.359)" fill="#131628"/>
<use xlink:href="#path2_stroke" transform="matrix(0.944179 0.329432 -0.329432 0.944179 1970.78 240.359)"/>
</g>
</g>
</g>
<g id="Group">
<g id="Group">
<g id="Vector">
<use xlink:href="#path3_fill" transform="matrix(0.944179 0.329432 -0.329432 0.944179 2009.15 253.746)" fill="#131628"/>
<use xlink:href="#path4_stroke" transform="matrix(0.944179 0.329432 -0.329432 0.944179 2009.15 253.746)"/>
</g>
</g>
</g>
<g id="Group">
<g id="Group">
<g id="Vector">
<use xlink:href="#path5_fill" transform="matrix(0.944179 0.329432 -0.329432 0.944179 2005.96 265.973)" fill="#131628"/>
<use xlink:href="#path6_stroke" transform="matrix(0.944179 0.329432 -0.329432 0.944179 2005.96 265.973)"/>
</g>
</g>
</g>
<g id="Group">
<g id="Group">
<g id="Vector">
<use xlink:href="#path7_fill" transform="matrix(0.944179 0.329432 -0.329432 0.944179 2002 251.251)" fill="#131628"/>
<use xlink:href="#path8_stroke" transform="matrix(0.944179 0.329432 -0.329432 0.944179 2002 251.251)"/>
</g>
</g>
</g>
<g id="Group">
<g id="Group">
<g id="Vector">
<use xlink:href="#path9_fill" transform="matrix(0.944179 0.329432 -0.329432 0.944179 1965.84 275.935)" fill="#131628"/>
<use xlink:href="#path10_stroke" transform="matrix(0.944179 0.329432 -0.329432 0.944179 1965.84 275.935)"/>
</g>
</g>
</g>
<g id="Group">
<g id="Group">
<g id="Vector">
<use xlink:href="#path11_fill" transform="matrix(0.944179 0.329432 -0.329432 0.944179 1991.38 260.362)" fill="#131628"/>
<use xlink:href="#path12_stroke" transform="matrix(0.944179 0.329432 -0.329432 0.944179 1991.38 260.362)"/>
</g>
</g>
</g>
</g>
<g id="Ellipse">
<use xlink:href="#path13_stroke" transform="matrix(-1 0 0 1 2034 222)" fill="#CACACA"/>
</g>
</g>
</g>
<defs>
<path id="path0_fill" d="M 85.3133 42.6566C 85.3133 66.2152 66.2152 85.3133 42.6566 85.3133C 19.098 85.3133 0 66.2152 0 42.6566C 0 19.098 19.098 0 42.6566 0C 66.2152 0 85.3133 19.098 85.3133 42.6566Z"/>
<path id="path1_fill" d="M 47.2268 25.4608L 39.1711 17.4048C 41.0709 14.8665 40.8689 11.2422 38.563 8.93616C 37.338 7.71122 35.7094 7.03659 33.977 7.03659C 32.5579 7.03659 31.2086 7.49005 30.0935 8.32712L 22.0379 0.271569C 21.8233 0.0569908 21.5171 -0.0387485 21.2185 0.0144091C 20.9198 0.067845 20.6661 0.264055 20.5391 0.539862L 7.41562 29.0627L 2.28244 34.1959C 0.81063 35.6677 0 37.6246 0 39.706C 0 41.7875 0.81063 43.7444 2.28234 45.2161C 3.75415 46.6878 5.71105 47.4985 7.79246 47.4985C 9.87386 47.4985 11.8308 46.6879 13.3026 45.2161L 16.7288 41.7899L 22.1657 47.2268C 22.3396 47.4007 22.5756 47.4985 22.8217 47.4985C 23.0677 47.4985 23.3037 47.4007 23.4777 47.2268L 26.8661 43.8383C 27.2284 43.4761 27.2284 42.8886 26.8661 42.5263L 22.5361 38.1963L 46.9586 26.9595C 47.2343 26.8326 47.4305 26.5788 47.484 26.2801C 47.5373 25.9814 47.4413 25.6753 47.2268 25.4608ZM 33.9769 8.892C 35.2137 8.892 36.3764 9.37358 37.2509 10.2482C 38.8317 11.8289 39.0284 14.2777 37.841 16.0744L 31.4241 9.65755C 32.1749 9.15946 33.0554 8.892 33.9769 8.892ZM 14.5204 41.3744L 11.0913 37.9455C 10.729 37.5833 10.1416 37.5833 9.77933 37.9455C 9.41706 38.3077 9.41706 38.8951 9.77933 39.2575L 13.2083 42.6865L 11.9905 43.9043C 10.8693 45.0256 9.37837 45.6432 7.79255 45.6432C 6.20673 45.6432 4.71572 45.0256 3.5944 43.9042C 2.47299 42.7828 1.85541 41.2919 1.85541 39.706C 1.85541 38.1201 2.47299 36.6292 3.5944 35.5078L 8.18886 30.9133L 16.5852 39.3096L 14.5204 41.3744ZM 24.8983 43.1824L 22.8218 45.2588L 18.0408 40.4779L 18.4358 40.083L 20.7392 39.0232L 24.8983 43.1824ZM 18.0964 38.1969L 9.30174 29.4022L 19.6138 6.98984L 23.8535 11.2295C 24.0346 11.4106 24.272 11.5013 24.5094 11.5013C 24.7468 11.5013 24.9843 11.4106 25.1654 11.2295C 25.5277 10.8673 25.5278 10.2799 25.1654 9.91749L 20.4406 5.19259L 21.6679 2.52525L 44.9732 25.8305L 18.0964 38.1969Z"/>
<path id="path2_stroke" d="M 47.2268 25.4608L 47.4037 25.284L 47.4036 25.284L 47.2268 25.4608ZM 39.1711 17.4048L 38.971 17.255L 38.8412 17.4284L 38.9943 17.5816L 39.1711 17.4048ZM 38.563 8.93616L 38.7398 8.75939L 38.7398 8.75938L 38.563 8.93616ZM 30.0935 8.32712L 29.9167 8.5039L 30.0701 8.65728L 30.2436 8.52706L 30.0935 8.32712ZM 22.0379 0.271569L 22.2147 0.0947927L 22.2147 0.0947545L 22.0379 0.271569ZM 21.2185 0.0144091L 21.1747 -0.231722L 21.1745 -0.231685L 21.2185 0.0144091ZM 20.5391 0.539862L 20.312 0.435359L 20.312 0.435366L 20.5391 0.539862ZM 7.41562 29.0627L 7.5924 29.2394L 7.62403 29.2078L 7.64274 29.1672L 7.41562 29.0627ZM 2.28244 34.1959L 2.45921 34.3726L 2.28244 34.1959ZM 2.28234 45.2161L 2.10557 45.3929L 2.10557 45.3929L 2.28234 45.2161ZM 16.7288 41.7899L 16.9056 41.6131L 16.7288 41.4363L 16.552 41.6131L 16.7288 41.7899ZM 22.1657 47.2268L 21.9889 47.4036L 22.1657 47.2268ZM 23.4777 47.2268L 23.6544 47.4036L 23.4777 47.2268ZM 26.8661 43.8383L 26.6893 43.6616L 26.8661 43.8383ZM 26.8661 42.5263L 27.0429 42.3495L 27.0429 42.3495L 26.8661 42.5263ZM 22.5361 38.1963L 22.4316 37.9692L 22.1055 38.1192L 22.3593 38.3731L 22.5361 38.1963ZM 46.9586 26.9595L 47.063 27.1866L 47.0631 27.1866L 46.9586 26.9595ZM 47.484 26.2801L 47.7301 26.3242L 47.7301 26.324L 47.484 26.2801ZM 37.2509 10.2482L 37.0742 10.425L 37.0742 10.425L 37.2509 10.2482ZM 37.841 16.0744L 37.6642 16.2512L 37.8807 16.4677L 38.0495 16.2122L 37.841 16.0744ZM 31.4241 9.65755L 31.2859 9.44922L 31.0312 9.61819L 31.2473 9.83432L 31.4241 9.65755ZM 14.5204 41.3744L 14.3436 41.5512L 14.5204 41.728L 14.6971 41.5512L 14.5204 41.3744ZM 11.0913 37.9455L 11.2681 37.7687L 11.268 37.7687L 11.0913 37.9455ZM 9.77933 37.9455L 9.60257 37.7687L 9.60255 37.7687L 9.77933 37.9455ZM 9.77933 39.2575L 9.60253 39.4343L 9.60255 39.4343L 9.77933 39.2575ZM 13.2083 42.6865L 13.3851 42.8633L 13.5619 42.6865L 13.3851 42.5097L 13.2083 42.6865ZM 11.9905 43.9043L 11.8137 43.7275L 11.8137 43.7275L 11.9905 43.9043ZM 3.5944 43.9042L 3.77118 43.7274L 3.77118 43.7274L 3.5944 43.9042ZM 3.5944 35.5078L 3.41762 35.331L 3.5944 35.5078ZM 8.18886 30.9133L 8.36564 30.7366L 8.18886 30.5598L 8.01209 30.7366L 8.18886 30.9133ZM 16.5852 39.3096L 16.7619 39.4864L 16.9387 39.3096L 16.7619 39.1329L 16.5852 39.3096ZM 24.8983 43.1824L 25.075 43.3591L 25.2518 43.1824L 25.075 43.0056L 24.8983 43.1824ZM 22.8218 45.2588L 22.645 45.4356L 22.8218 45.6124L 22.9985 45.4356L 22.8218 45.2588ZM 18.0408 40.4779L 17.8641 40.3011L 17.6873 40.4779L 17.8641 40.6547L 18.0408 40.4779ZM 18.4358 40.083L 18.3313 39.8559L 18.2906 39.8746L 18.259 39.9062L 18.4358 40.083ZM 20.7392 39.0232L 20.9159 38.8464L 20.7928 38.7233L 20.6347 38.7961L 20.7392 39.0232ZM 18.0964 38.1969L 17.9196 38.3736L 18.0427 38.4967L 18.2009 38.424L 18.0964 38.1969ZM 9.30174 29.4022L 9.07463 29.2977L 9.00186 29.4559L 9.12497 29.579L 9.30174 29.4022ZM 19.6138 6.98984L 19.7905 6.81306L 19.5367 6.55922L 19.3866 6.88534L 19.6138 6.98984ZM 23.8535 11.2295L 23.6767 11.4063L 23.6767 11.4064L 23.8535 11.2295ZM 25.1654 11.2295L 25.3422 11.4063L 25.1654 11.2295ZM 25.1654 9.91749L 24.9887 10.0943L 24.9887 10.0943L 25.1654 9.91749ZM 20.4406 5.19259L 20.2135 5.08809L 20.1407 5.24625L 20.2638 5.36936L 20.4406 5.19259ZM 21.6679 2.52525L 21.8447 2.34847L 21.5908 2.09463L 21.4408 2.42075L 21.6679 2.52525ZM 44.9732 25.8305L 45.0777 26.0576L 45.4038 25.9076L 45.1499 25.6538L 44.9732 25.8305ZM 47.4036 25.284L 39.3479 17.2281L 38.9943 17.5816L 47.0501 25.6375L 47.4036 25.284ZM 39.3713 17.5546C 41.3443 14.9184 41.135 11.1547 38.7398 8.75939L 38.3862 9.11294C 40.6028 11.3296 40.7974 14.8146 38.971 17.255L 39.3713 17.5546ZM 38.7398 8.75938C 37.4679 7.48756 35.7757 6.78659 33.977 6.78659L 33.977 7.28659C 35.6431 7.28659 37.2081 7.93488 38.3862 9.11295L 38.7398 8.75938ZM 33.977 6.78659C 32.5038 6.78659 31.1019 7.25757 29.9434 8.12719L 30.2436 8.52706C 31.3153 7.72254 32.6119 7.28659 33.977 7.28659L 33.977 6.78659ZM 30.2703 8.15035L 22.2147 0.0947927L 21.8612 0.448346L 29.9167 8.5039L 30.2703 8.15035ZM 22.2147 0.0947545C 21.9421 -0.17776 21.5535 -0.29915 21.1747 -0.231722L 21.2623 0.26054C 21.4808 0.221653 21.7045 0.291741 21.8612 0.448384L 22.2147 0.0947545ZM 21.1745 -0.231685C 20.7952 -0.163843 20.4731 0.0852601 20.312 0.435359L 20.7663 0.644365C 20.859 0.44285 21.0443 0.299533 21.2625 0.260503L 21.1745 -0.231685ZM 20.312 0.435366L 7.18851 28.9582L 7.64274 29.1672L 20.7663 0.644358L 20.312 0.435366ZM 7.23884 28.8859L 2.10566 34.0191L 2.45921 34.3726L 7.5924 29.2394L 7.23884 28.8859ZM 2.10566 34.0191C 0.586973 35.5378 -0.25 37.5583 -0.25 39.706L 0.25 39.706C 0.25 37.6909 1.03429 35.7976 2.45921 34.3726L 2.10566 34.0191ZM -0.25 39.706C -0.25 41.8538 0.58697 43.8743 2.10557 45.3929L 2.45912 45.0393C 1.03429 43.6145 0.25 41.7212 0.25 39.706L -0.25 39.706ZM 2.10557 45.3929C 3.62425 46.9114 5.64474 47.7485 7.79246 47.7485L 7.79246 47.2485C 5.77737 47.2485 3.88405 46.4641 2.45911 45.0393L 2.10557 45.3929ZM 7.79246 47.7485C 9.94017 47.7485 11.9607 46.9115 13.4793 45.3929L 13.1258 45.0393C 11.7009 46.4642 9.80755 47.2485 7.79246 47.2485L 7.79246 47.7485ZM 13.4793 45.3929L 16.9056 41.9666L 16.552 41.6131L 13.1258 45.0393L 13.4793 45.3929ZM 16.552 41.9666L 21.9889 47.4036L 22.3425 47.05L 16.9056 41.6131L 16.552 41.9666ZM 21.9889 47.4036C 22.2097 47.6244 22.5093 47.7485 22.8217 47.7485L 22.8217 47.2485C 22.642 47.2485 22.4695 47.1771 22.3425 47.05L 21.9889 47.4036ZM 22.8217 47.7485C 23.134 47.7485 23.4336 47.6244 23.6544 47.4036L 23.3009 47.05C 23.1738 47.1771 23.0014 47.2485 22.8217 47.2485L 22.8217 47.7485ZM 23.6544 47.4036L 27.0429 44.0151L 26.6893 43.6616L 23.3009 47.05L 23.6544 47.4036ZM 27.0429 44.0151C 27.5028 43.5552 27.5028 42.8095 27.0429 42.3495L 26.6893 42.703C 26.954 42.9678 26.954 43.3969 26.6893 43.6616L 27.0429 44.0151ZM 27.0429 42.3495L 22.7129 38.0195L 22.3593 38.3731L 26.6893 42.7031L 27.0429 42.3495ZM 22.6406 38.4234L 47.063 27.1866L 46.8541 26.7323L 22.4316 37.9692L 22.6406 38.4234ZM 47.0631 27.1866C 47.4131 27.0255 47.6621 26.7034 47.7301 26.3242L 47.2379 26.236C 47.1988 26.4543 47.0555 26.6396 46.854 26.7324L 47.0631 27.1866ZM 47.7301 26.324C 47.7978 25.9449 47.676 25.5564 47.4037 25.284L 47.05 25.6375C 47.2067 25.7942 47.2769 26.0178 47.2379 26.2362L 47.7301 26.324ZM 33.9769 9.142C 35.1474 9.142 36.2465 9.59724 37.0742 10.425L 37.4277 10.0715C 36.5063 9.14991 35.28 8.642 33.9769 8.642L 33.9769 9.142ZM 37.0742 10.425C 38.5691 11.9199 38.7558 14.2368 37.6324 15.9366L 38.0495 16.2122C 39.3011 14.3186 39.0942 11.738 37.4277 10.0714L 37.0742 10.425ZM 38.0177 15.8976L 31.6009 9.48077L 31.2473 9.83432L 37.6642 16.2512L 38.0177 15.8976ZM 31.5623 9.86587C 32.272 9.39508 33.1043 9.142 33.9769 9.142L 33.9769 8.642C 33.0064 8.642 32.0778 8.92384 31.2859 9.44922L 31.5623 9.86587ZM 14.6971 41.1977L 11.2681 37.7687L 10.9145 38.1222L 14.3436 41.5512L 14.6971 41.1977ZM 11.268 37.7687C 10.8081 37.3089 10.0625 37.3089 9.60257 37.7687L 9.95608 38.1223C 10.2207 37.8577 10.6499 37.8577 10.9145 38.1223L 11.268 37.7687ZM 9.60255 37.7687C 9.14264 38.2286 9.14267 38.9743 9.60253 39.4343L 9.95613 39.0808C 9.69144 38.816 9.69148 38.3869 9.9561 38.1222L 9.60255 37.7687ZM 9.60255 39.4343L 13.0315 42.8633L 13.3851 42.5097L 9.9561 39.0807L 9.60255 39.4343ZM 13.0315 42.5097L 11.8137 43.7275L 12.1673 44.0811L 13.3851 42.8633L 13.0315 42.5097ZM 11.8137 43.7275C 10.7394 44.802 9.31207 45.3932 7.79255 45.3932L 7.79255 45.8932C 9.44467 45.8932 10.9992 45.2493 12.1673 44.0811L 11.8137 43.7275ZM 7.79255 45.3932C 6.27303 45.3932 4.84561 44.802 3.77118 43.7274L 3.41761 44.081C 4.58582 45.2493 6.14043 45.8932 7.79255 45.8932L 7.79255 45.3932ZM 3.77118 43.7274C 2.69665 42.6529 2.10541 41.2256 2.10541 39.706L 1.60541 39.706C 1.60541 41.3582 2.24933 42.9127 3.41762 44.081L 3.77118 43.7274ZM 2.10541 39.706C 2.10541 38.1865 2.69665 36.7591 3.77118 35.6846L 3.41762 35.331C 2.24933 36.4993 1.60541 38.0538 1.60541 39.706L 2.10541 39.706ZM 3.77118 35.6846L 8.36564 31.0901L 8.01209 30.7366L 3.41762 35.331L 3.77118 35.6846ZM 8.01209 31.0901L 16.4084 39.4864L 16.7619 39.1329L 8.36564 30.7366L 8.01209 31.0901ZM 16.4084 39.1329L 14.3436 41.1977L 14.6971 41.5512L 16.7619 39.4864L 16.4084 39.1329ZM 24.7215 43.0056L 22.645 45.0821L 22.9985 45.4356L 25.075 43.3591L 24.7215 43.0056ZM 22.9985 45.0821L 18.2176 40.3011L 17.8641 40.6547L 22.645 45.4356L 22.9985 45.0821ZM 18.2176 40.6547L 18.6125 40.2598L 18.259 39.9062L 17.8641 40.3011L 18.2176 40.6547ZM 18.5403 40.3101L 20.8437 39.2503L 20.6347 38.7961L 18.3313 39.8559L 18.5403 40.3101ZM 20.5624 39.1999L 24.7215 43.3591L 25.075 43.0056L 20.9159 38.8464L 20.5624 39.1999ZM 18.2732 38.0201L 9.47852 29.2254L 9.12497 29.579L 17.9196 38.3736L 18.2732 38.0201ZM 9.52886 29.5067L 19.8409 7.09433L 19.3866 6.88534L 9.07463 29.2977L 9.52886 29.5067ZM 19.437 7.16661L 23.6767 11.4063L 24.0302 11.0528L 19.7905 6.81306L 19.437 7.16661ZM 23.6767 11.4064C 23.9066 11.6361 24.2084 11.7513 24.5094 11.7513L 24.5094 11.2513C 24.3357 11.2513 24.1627 11.1851 24.0302 11.0527L 23.6767 11.4064ZM 24.5094 11.7513C 24.8105 11.7513 25.1124 11.6362 25.3422 11.4063L 24.9887 11.0528C 24.8563 11.1851 24.6832 11.2513 24.5094 11.2513L 24.5094 11.7513ZM 25.3422 11.4063C 25.8021 10.9464 25.8022 10.2007 25.3422 9.74072L 24.9887 10.0943C 25.2534 10.359 25.2533 10.7881 24.9887 11.0528L 25.3422 11.4063ZM 25.3422 9.74072L 20.6174 5.01581L 20.2638 5.36936L 24.9887 10.0943L 25.3422 9.74072ZM 20.6677 5.29709L 21.895 2.62974L 21.4408 2.42075L 20.2135 5.08809L 20.6677 5.29709ZM 21.4911 2.70202L 44.7964 26.0073L 45.1499 25.6538L 21.8447 2.34847L 21.4911 2.70202ZM 44.8687 25.6034L 17.9919 37.9697L 18.2009 38.424L 45.0777 26.0576L 44.8687 25.6034Z"/>
<path id="path3_fill" d="M 6.5931 0.271632C 6.23083 -0.0905442 5.6434 -0.0905442 5.28104 0.271632L 0.271702 5.28106C -0.0905676 5.64333 -0.0905676 6.23076 0.271702 6.59312C 0.452976 6.77421 0.690375 6.86484 0.927775 6.86484C 1.16518 6.86484 1.40267 6.77421 1.58376 6.59312L 6.59319 1.58369C 6.95536 1.22142 6.95536 0.633995 6.5931 0.271632Z"/>
<path id="path4_stroke" d="M 6.5931 0.271632L 6.76989 0.0948784L 6.76985 0.0948332L 6.5931 0.271632ZM 5.28104 0.271632L 5.10431 0.0948105L 5.10426 0.0948574L 5.28104 0.271632ZM 0.271702 5.28106L 0.448478 5.45784L 0.44848 5.45784L 0.271702 5.28106ZM 0.271702 6.59312L 0.0949024 6.76987L 0.0950156 6.76999L 0.271702 6.59312ZM 1.58376 6.59312L 1.76053 6.76989L 1.58376 6.59312ZM 6.59319 1.58369L 6.76996 1.76046L 6.76999 1.76044L 6.59319 1.58369ZM 6.76985 0.0948332C 6.30994 -0.364957 5.56428 -0.364924 5.10431 0.0948105L 5.45777 0.448454C 5.72252 0.183836 6.15171 0.183869 6.41634 0.448432L 6.76985 0.0948332ZM 5.10426 0.0948574L 0.0949235 5.10429L 0.44848 5.45784L 5.45782 0.448408L 5.10426 0.0948574ZM 0.0949251 5.10429C -0.364988 5.5642 -0.364955 6.3099 0.0949024 6.76987L 0.448501 6.41636C 0.18382 6.15162 0.183853 5.72247 0.448478 5.45784L 0.0949251 5.10429ZM 0.0950156 6.76999C 0.324975 6.99971 0.626716 7.11484 0.927775 7.11484L 0.927775 6.61484C 0.754034 6.61484 0.580977 6.5487 0.448388 6.41625L 0.0950156 6.76999ZM 0.927775 7.11484C 1.22878 7.11484 1.53069 6.99974 1.76053 6.76989L 1.40698 6.41634C 1.27465 6.54867 1.10157 6.61484 0.927775 6.61484L 0.927775 7.11484ZM 1.76053 6.76989L 6.76996 1.76046L 6.41641 1.40691L 1.40698 6.41634L 1.76053 6.76989ZM 6.76999 1.76044C 7.22978 1.30053 7.22975 0.554851 6.76989 0.0948784L 6.4163 0.448387C 6.68098 0.713138 6.68095 1.14231 6.41639 1.40693L 6.76999 1.76044Z"/>
<path id="path5_fill" d="M 4.91675 -5.09604e-07L 0.927708 -5.09604e-07C 0.415335 -5.09604e-07 1.06451e-06 0.415426 1.06451e-06 0.927706C 1.06451e-06 1.43999 0.415335 1.85541 0.927708 1.85541L 4.91675 1.85541C 5.42912 1.85541 5.84446 1.43999 5.84446 0.927706C 5.84437 0.415426 5.42903 -5.09604e-07 4.91675 -5.09604e-07Z"/>
<path id="path6_stroke" d="M 5.84446 0.927706L 6.09446 0.927706L 6.09446 0.927661L 5.84446 0.927706ZM 4.91675 -0.250001L 0.927708 -0.250001L 0.927708 0.249999L 4.91675 0.249999L 4.91675 -0.250001ZM 0.927708 -0.250001C 0.277248 -0.250001 -0.249999 0.277372 -0.249999 0.927706L 0.250001 0.927706C 0.250001 0.553481 0.553423 0.249999 0.927708 0.249999L 0.927708 -0.250001ZM -0.249999 0.927706C -0.249999 1.57804 0.277248 2.10541 0.927708 2.10541L 0.927708 1.60541C 0.553423 1.60541 0.250001 1.30193 0.250001 0.927706L -0.249999 0.927706ZM 0.927708 2.10541L 4.91675 2.10541L 4.91675 1.60541L 0.927708 1.60541L 0.927708 2.10541ZM 4.91675 2.10541C 5.56721 2.10541 6.09446 1.57804 6.09446 0.927706L 5.59446 0.927706C 5.59446 1.30193 5.29104 1.60541 4.91675 1.60541L 4.91675 2.10541ZM 6.09446 0.927661C 6.09434 0.277387 5.56714 -0.250001 4.91675 -0.250001L 4.91675 0.249999C 5.29092 0.249999 5.59439 0.553466 5.59446 0.927751L 6.09446 0.927661Z"/>
<path id="path7_fill" d="M 0.927705 4.00893e-11C 0.415333 4.00893e-11 -1.2457e-06 0.415427 -1.2457e-06 0.927707L -1.2457e-06 4.91675C -1.2457e-06 5.42903 0.415333 5.84446 0.927705 5.84446C 1.44008 5.84446 1.85541 5.42903 1.85541 4.91675L 1.85541 0.927707C 1.85541 0.415427 1.44008 4.00893e-11 0.927705 4.00893e-11Z"/>
<path id="path8_stroke" d="M 0.927705 -0.25C 0.277245 -0.25 -0.250001 0.277372 -0.250001 0.927707L 0.249999 0.927707C 0.249999 0.553482 0.55342 0.25 0.927705 0.25L 0.927705 -0.25ZM -0.250001 0.927707L -0.250001 4.91675L 0.249999 4.91675L 0.249999 0.927707L -0.250001 0.927707ZM -0.250001 4.91675C -0.250001 5.56709 0.277245 6.09446 0.927705 6.09446L 0.927705 5.59446C 0.55342 5.59446 0.249999 5.29098 0.249999 4.91675L -0.250001 4.91675ZM 0.927705 6.09446C 1.57817 6.09446 2.10541 5.56709 2.10541 4.91675L 1.60541 4.91675C 1.60541 5.29098 1.30199 5.59446 0.927705 5.59446L 0.927705 6.09446ZM 2.10541 4.91675L 2.10541 0.927707L 1.60541 0.927707L 1.60541 4.91675L 2.10541 4.91675ZM 2.10541 0.927707C 2.10541 0.277372 1.57817 -0.25 0.927705 -0.25L 0.927705 0.25C 1.30199 0.25 1.60541 0.553482 1.60541 0.927707L 2.10541 0.927707Z"/>
<path id="path9_fill" d="M 1.5836 0.271819C 1.41104 0.0982452 1.17262 -1.06451e-06 0.927706 -1.06451e-06C 0.68372 -1.06451e-06 0.444371 0.098338 0.271818 0.271819C 0.0992646 0.444373 -5.66227e-08 0.682884 -5.66227e-08 0.927705C -5.66227e-08 1.17169 0.0992646 1.41104 0.271818 1.58359C 0.444371 1.75606 0.68372 1.85541 0.927706 1.85541C 1.17169 1.85541 1.41104 1.75615 1.5836 1.58359C 1.75615 1.41104 1.85541 1.17169 1.85541 0.927705C 1.85541 0.682698 1.75615 0.444373 1.5836 0.271819Z"/>
<path id="path10_stroke" d="M 1.5836 0.271819L 1.4063 0.448075L 1.40682 0.448596L 1.5836 0.271819ZM 0.271818 0.271819L 0.448595 0.448596L 0.449068 0.448121L 0.271818 0.271819ZM 0.271818 1.58359L 0.0950413 1.76037L 0.0950888 1.76042L 0.271818 1.58359ZM 1.85541 0.927705L 1.60541 0.927705L 1.85541 0.927705ZM 1.76089 0.0955644C 1.54095 -0.125679 1.23852 -0.250001 0.927706 -0.250001L 0.927706 0.249999C 1.10672 0.249999 1.28113 0.32217 1.4063 0.448074L 1.76089 0.0955644ZM 0.927706 -0.250001C 0.617896 -0.250001 0.314544 -0.125641 0.094568 0.095517L 0.449068 0.448121C 0.574199 0.322317 0.749543 0.249999 0.927706 0.249999L 0.927706 -0.250001ZM 0.0950413 0.0950424C -0.124247 0.314331 -0.25 0.616369 -0.25 0.927705L 0.25 0.927705C 0.25 0.749398 0.322776 0.574414 0.448595 0.448596L 0.0950413 0.0950424ZM -0.25 0.927705C -0.25 1.23809 -0.124332 1.541 0.0950413 1.76037L 0.448595 1.40682C 0.322861 1.28108 0.25 1.1053 0.25 0.927705L -0.25 0.927705ZM 0.0950888 1.76042C 0.314402 1.97961 0.617268 2.10541 0.927706 2.10541L 0.927706 1.60541C 0.750171 1.60541 0.574341 1.5325 0.448547 1.40677L 0.0950888 1.76042ZM 0.927706 2.10541C 1.23809 2.10541 1.541 1.97975 1.76037 1.76037L 1.40682 1.40682C 1.28109 1.53255 1.1053 1.60541 0.927706 1.60541L 0.927706 2.10541ZM 1.76037 1.76037C 1.97975 1.541 2.10541 1.23809 2.10541 0.927705L 1.60541 0.927705C 1.60541 1.1053 1.53255 1.28108 1.40682 1.40682L 1.76037 1.76037ZM 2.10541 0.927705C 2.10541 0.616157 1.97964 0.314312 1.76037 0.0950424L 1.40682 0.448596C 1.53266 0.574433 1.60541 0.749239 1.60541 0.927705L 2.10541 0.927705Z"/>
<path id="path11_fill" d="M 1.58359 0.271818C 1.41104 0.0993569 1.17169 2.26491e-07 0.927706 2.26491e-07C 0.683719 2.26491e-07 0.444373 0.0992641 0.271819 0.271818C 0.0992658 0.445299 -9.73911e-07 0.68372 -9.73911e-07 0.927707C -9.73911e-07 1.17169 0.0992658 1.41104 0.271819 1.58359C 0.444373 1.75606 0.683719 1.85541 0.927706 1.85541C 1.17169 1.85541 1.41104 1.75615 1.58359 1.58359C 1.75615 1.41104 1.85541 1.17169 1.85541 0.927707C 1.85541 0.68372 1.75615 0.444371 1.58359 0.271818Z"/>
<path id="path12_stroke" d="M 1.58359 0.271818L 1.76037 0.0950409L 1.76032 0.0949933L 1.58359 0.271818ZM 0.271819 0.271818L 0.0950419 0.0950402L 0.0945692 0.0955154L 0.271819 0.271818ZM 0.271819 1.58359L 0.0950425 1.76037L 0.09509 1.76042L 0.271819 1.58359ZM 1.76032 0.0949933C 1.54101 -0.124202 1.23814 -0.25 0.927706 -0.25L 0.927706 0.25C 1.10524 0.25 1.28107 0.322916 1.40687 0.448642L 1.76032 0.0949933ZM 0.927706 -0.25C 0.617324 -0.25 0.314416 -0.124332 0.0950425 0.0950409L 0.448596 0.448594C 0.574329 0.322861 0.750114 0.25 0.927706 0.25L 0.927706 -0.25ZM 0.0945692 0.0955154C -0.124079 0.315339 -0.250001 0.616942 -0.250001 0.927707L 0.249999 0.927707C 0.249999 0.750498 0.32261 0.575259 0.449069 0.44812L 0.0945692 0.0955154ZM -0.250001 0.927707C -0.250001 1.23809 -0.12433 1.541 0.0950425 1.76037L 0.448596 1.40682C 0.322861 1.28108 0.249999 1.1053 0.249999 0.927707L -0.250001 0.927707ZM 0.09509 1.76042C 0.314402 1.97961 0.617266 2.10541 0.927706 2.10541L 0.927706 1.60541C 0.750172 1.60541 0.574343 1.5325 0.448548 1.40677L 0.09509 1.76042ZM 0.927706 2.10541C 1.23809 2.10541 1.541 1.97974 1.76037 1.76037L 1.40682 1.40682C 1.28108 1.53255 1.1053 1.60541 0.927706 1.60541L 0.927706 2.10541ZM 1.76037 1.76037C 1.97974 1.541 2.10541 1.23809 2.10541 0.927707L 1.60541 0.927707C 1.60541 1.1053 1.53255 1.28108 1.40682 1.40682L 1.76037 1.76037ZM 2.10541 0.927707C 2.10541 0.617326 1.97975 0.314415 1.76037 0.0950409L 1.40682 0.448594C 1.53255 0.574327 1.60541 0.750114 1.60541 0.927707L 2.10541 0.927707Z"/>
<path id="path13_stroke" class="stroke-rounded" d="M 95.5894 33.1986C 95.4188 32.6733 94.8547 32.3857 94.3295 32.5563C 93.8042 32.7269 93.5166 33.291 93.6872 33.8163L 95.5894 33.1986ZM 89.6438 24.7469C 89.9203 25.225 90.5321 25.3883 91.0101 25.1117C 91.4882 24.8351 91.6515 24.2234 91.3749 23.7453L 89.6438 24.7469ZM 81.6223 11.714C 81.212 11.3444 80.5796 11.3773 80.21 11.7876C 79.8403 12.1979 79.8732 12.8302 80.2835 13.1999L 81.6223 11.714ZM 63.1837 3.31281C 63.709 3.48338 64.2731 3.19583 64.4437 2.67054C 64.6143 2.14526 64.3267 1.58116 63.8014 1.41058L 63.1837 3.31281ZM 33.1986 1.41059C 32.6733 1.58116 32.3857 2.14526 32.5563 2.67054C 32.7269 3.19583 33.291 3.48338 33.8163 3.31281L 33.1986 1.41059ZM 24.7469 7.35624C 25.225 7.07965 25.3883 6.46791 25.1117 5.98987C 24.8351 5.51184 24.2234 5.34853 23.7453 5.62512L 24.7469 7.35624ZM 11.714 15.3777C 11.3444 15.788 11.3773 16.4204 11.7876 16.79C 12.1979 17.1597 12.8302 17.1268 13.1999 16.7165L 11.714 15.3777ZM 3.31281 33.8163C 3.48338 33.291 3.19583 32.7269 2.67054 32.5563C 2.14526 32.3857 1.58116 32.6733 1.41058 33.1986L 3.31281 33.8163ZM 1.41059 63.8014C 1.58116 64.3267 2.14526 64.6143 2.67054 64.4437C 3.19583 64.2731 3.48338 63.709 3.31281 63.1837L 1.41059 63.8014ZM 7.35624 72.2531C 7.07965 71.775 6.46791 71.6117 5.98987 71.8883C 5.51184 72.1649 5.34853 72.7766 5.62512 73.2547L 7.35624 72.2531ZM 15.3777 85.2859C 15.788 85.6556 16.4204 85.6227 16.79 85.2124C 17.1597 84.8021 17.1268 84.1698 16.7165 83.8001L 15.3777 85.2859ZM 33.8163 93.6872C 33.291 93.5166 32.7269 93.8042 32.5563 94.3295C 32.3857 94.8547 32.6733 95.4188 33.1986 95.5894L 33.8163 93.6872ZM 63.8014 95.5894C 64.3267 95.4188 64.6143 94.8547 64.4437 94.3295C 64.2731 93.8042 63.709 93.5166 63.1837 93.6872L 63.8014 95.5894ZM 72.2531 89.6438C 71.775 89.9203 71.6117 90.5321 71.8883 91.0101C 72.1649 91.4882 72.7766 91.6515 73.2547 91.3749L 72.2531 89.6438ZM 85.2859 81.6223C 85.6556 81.212 85.6227 80.5796 85.2124 80.21C 84.8021 79.8403 84.1698 79.8732 83.8001 80.2835L 85.2859 81.6223ZM 93.6872 63.1837C 93.5166 63.709 93.8042 64.2731 94.3295 64.4437C 94.8547 64.6143 95.4188 64.3267 95.5894 63.8014L 93.6872 63.1837ZM 98 48.5C 98 43.1614 97.1545 38.0184 95.5894 33.1986L 93.6872 33.8163C 95.1883 38.439 96 43.3737 96 48.5L 98 48.5ZM 91.3749 23.7453C 88.7662 19.2367 85.4671 15.1782 81.6223 11.714L 80.2835 13.1999C 83.9742 16.5251 87.1405 20.4205 89.6438 24.7469L 91.3749 23.7453ZM 63.8014 1.41058C 58.9816 -0.154524 53.8386 -1 48.5 -1L 48.5 1C 53.6263 1 58.561 1.81169 63.1837 3.31281L 63.8014 1.41058ZM 48.5 -1C 43.1614 -1 38.0184 -0.154523 33.1986 1.41059L 33.8163 3.31281C 38.439 1.81169 43.3737 1 48.5 1L 48.5 -1ZM 23.7453 5.62512C 19.2367 8.23377 15.1782 11.5329 11.714 15.3777L 13.1999 16.7165C 16.5251 13.0258 20.4205 9.85948 24.7469 7.35624L 23.7453 5.62512ZM 1.41058 33.1986C -0.154524 38.0184 -1 43.1614 -1 48.5L 1 48.5C 1 43.3737 1.81169 38.439 3.31281 33.8163L 1.41058 33.1986ZM -1 48.5C -1 53.8386 -0.154523 58.9816 1.41059 63.8014L 3.31281 63.1837C 1.81169 58.561 1 53.6263 1 48.5L -1 48.5ZM 5.62512 73.2547C 8.23377 77.7633 11.5329 81.8218 15.3777 85.2859L 16.7165 83.8001C 13.0258 80.4749 9.85948 76.5795 7.35624 72.2531L 5.62512 73.2547ZM 33.1986 95.5894C 38.0184 97.1545 43.1614 98 48.5 98L 48.5 96C 43.3737 96 38.439 95.1883 33.8163 93.6872L 33.1986 95.5894ZM 48.5 98C 53.8386 98 58.9816 97.1545 63.8014 95.5894L 63.1837 93.6872C 58.561 95.1883 53.6263 96 48.5 96L 48.5 98ZM 73.2547 91.3749C 77.7633 88.7662 81.8218 85.4671 85.2859 81.6223L 83.8001 80.2835C 80.4749 83.9742 76.5795 87.1405 72.2531 89.6438L 73.2547 91.3749ZM 95.5894 63.8014C 97.1545 58.9816 98 53.8386 98 48.5L 96 48.5C 96 53.6263 95.1883 58.561 93.6872 63.1837L 95.5894 63.8014Z"/>
</defs>
</svg>
